<svg width="70" height="70" viewBox="0 0 70 70" fill="none" xmlns="http://www.w3.org/2000/svg">
<rect width="70" height="70" rx="10" fill="#E6E6E6"/>
<path d="M20.4291 55.92C29.6326 60.525 40.8265 56.7971 45.4315 47.5936C50.0364 38.39 46.3085 27.1961 37.105 22.5911C27.9015 17.9862 16.7075 21.7141 12.1026 30.9176C7.49765 40.1211 11.2255 51.3151 20.4291 55.92Z" fill="white"/>
<path d="M52.8426 24.9025C57.0049 26.9851 62.0673 25.2992 64.1499 21.1369C66.2324 16.9746 64.5465 11.9122 60.3842 9.82964C56.222 7.74708 51.1595 9.43301 49.077 13.5953C46.9944 17.7575 48.6803 22.82 52.8426 24.9025Z" fill="#F2BFAF" stroke="#2D2D2D" stroke-width="2" stroke-miterlimit="10"/>
<path d="M23.4511 57.0912C24.1437 56.2781 24.7352 55.3839 25.2126 54.4283C26.7814 51.2929 27.0404 47.6627 25.9326 44.3363C24.8249 41.0099 22.4411 38.2598 19.3056 36.691C16.5974 35.3296 13.5021 34.9456 10.5434 35.604" stroke="#F8D57E" stroke-width="2" stroke-miterlimit="10"/>
<path d="M35.2787 21.4215C34.3071 22.3877 33.4996 23.5059 32.8879 24.732C31.3867 27.7323 31.1384 31.206 32.1978 34.3893C33.2571 37.5726 35.5373 40.2048 38.537 41.7074C41.1741 43.0321 44.193 43.3881 47.0659 42.713" stroke="#F8D57E" stroke-width="2" stroke-miterlimit="10"/>
<path d="M25.3143 53.7251L23.4025 56.7839L18.0496 53.7251L14.226 50.6663L11.1672 45.6957L10.0201 40.7251L10.7848 35.7545H14.226L18.8143 36.5192L23.7848 40.3427L25.3143 44.1663L26.4613 48.7545L25.3143 53.7251Z" fill="#F8D57E"/>
<path d="M33.4975 24.3591L35.6262 21.4471L40.7431 24.8862L44.3346 28.2144L47.0247 33.3938L47.808 38.4346L46.6847 43.3366L43.2526 43.0869L38.7319 41.9913L34.0519 37.8172L31.9928 33.3938L31.9928 29.2334L33.4975 24.3591Z" fill="#F8D57E"/>
<path d="M20.4291 55.92C29.6326 60.525 40.8265 56.7971 45.4315 47.5936C50.0364 38.39 46.3085 27.1961 37.105 22.5911C27.9015 17.9862 16.7075 21.7141 12.1026 30.9176C7.49765 40.1211 11.2255 51.3151 20.4291 55.92Z" stroke="#2D2D2D" stroke-width="2" stroke-miterlimit="10"/>
</svg>
