<svg width="70" height="70" viewBox="0 0 70 70" fill="none" xmlns="http://www.w3.org/2000/svg">
<rect width="70" height="70" rx="10" fill="#E6E6E6"/>
<path d="M29.5294 37.4118L31.8235 40.0883L27.6176 44.2941L29.5294 45.8236L26.4706 47.353L24.5588 45.8236H21.1176L18.4412 48.5V51.5588L19.9706 54.2353L18.4412 56.5294L15 51.5588L15.7647 47.353L18.4412 44.2941L29.5294 37.4118Z" fill="#009379"/>
<path d="M30.6765 48.1177L29.5294 45.4412L26.8529 46.9706V49.2647V52.3236L25.3235 53.853H22.647L20.3529 53.4706L18.4412 56.1471L21.1176 57.2941H25.3235L28.3823 55.3824L30.2941 52.3236L30.6765 48.1177Z" fill="#009379"/>
<path d="M20.3704 42.923L34.5515 34.1265V29.8297L57.4154 18.6449L27.7873 43.8081" stroke="#2D2D2D" stroke-width="2" stroke-linecap="round" stroke-linejoin="round"/>
<path d="M20.3952 42.9774C18.9575 43.5608 17.7265 44.5599 16.8598 45.8468C15.993 47.1337 15.5299 48.6499 15.5297 50.2014C15.5297 52.2695 16.3512 54.2529 17.8135 55.7152C19.2759 57.1776 21.2592 57.9991 23.3273 57.9991C25.3954 57.9991 27.3787 57.1776 28.8411 55.7152C30.3034 54.2529 31.125 52.2695 31.125 50.2014C31.1246 48.9463 30.8215 47.7098 30.2414 46.5967C29.6612 45.4837 28.8211 44.5271 27.7923 43.8081" stroke="#2D2D2D" stroke-width="2" stroke-linecap="round" stroke-linejoin="round"/>
<path d="M27.5708 30.8716L28.3355 26.873L24.0008 25.8609L24.8767 23.5747L21.4644 23.8021L20.5885 26.0883L17.6198 27.8285L13.9573 26.873L12.4104 24.2342L12.3764 21.1517L9.8968 19.946L9.89677 25.5187L12.2283 29.2161L16.0842 30.5015L27.5708 30.8716Z" fill="#009379"/>
<path d="M24.7061 21.0155L25.0701 23.9046L21.9876 23.9386L21.4532 20.9305L18.7767 18.6364L15.7179 18.2541L13.8061 19.7835L13.093 21.6181L10.0902 20.2758L11.8191 17.9328L14.5708 15.1952L18.7767 14.8129L21.9876 16.7246L24.7061 21.0155Z" fill="#009379"/>
<path d="M23.2728 54.6269C25.7279 54.6269 27.718 52.6367 27.718 50.1817C27.718 47.7266 25.7279 45.7365 23.2728 45.7365C20.8178 45.7365 18.8276 47.7266 18.8276 50.1817C18.8276 52.6367 20.8178 54.6269 23.2728 54.6269Z" stroke="#2D2D2D" stroke-width="2" stroke-linecap="round" stroke-linejoin="round"/>
<path d="M36.3465 28.9495L24.1827 26.3239" stroke="#2D2D2D" stroke-width="2" stroke-linecap="round" stroke-linejoin="round"/>
<path d="M37.6616 35.4268L62.1819 34.5269L43.4715 30.4872" stroke="#2D2D2D" stroke-width="2" stroke-linecap="round" stroke-linejoin="round"/>
<path d="M17.8635 30.5465L34.517 31.6047" stroke="#2D2D2D" stroke-width="2" stroke-linecap="round" stroke-linejoin="round"/>
<path d="M18.0613 30.5516C16.5175 30.7166 14.9596 30.4169 13.5871 29.691C12.2147 28.9652 11.0902 27.8461 10.3576 26.4772C9.87411 25.5747 9.5732 24.5858 9.47207 23.567C9.37094 22.5481 9.47157 21.5194 9.76821 20.5394C10.0649 19.5595 10.5517 18.6476 11.2009 17.8559C11.8501 17.0642 12.649 16.4082 13.5518 15.9254C14.4544 15.4416 15.4434 15.1404 16.4624 15.0388C17.4814 14.9373 18.5105 15.0374 19.4908 15.3336C20.471 15.6297 21.3834 16.1161 22.1757 16.7648C22.9681 17.4136 23.6248 18.2121 24.1086 19.1147C24.7002 20.2215 25.0163 21.4547 25.0301 22.7096C25.0439 23.9646 24.7549 25.2044 24.1877 26.3239" stroke="#2D2D2D" stroke-width="2" stroke-linecap="round" stroke-linejoin="round"/>
<path d="M17.1959 27.2881C19.651 27.2881 21.6411 25.2979 21.6411 22.8429C21.6411 20.3878 19.651 18.3977 17.1959 18.3977C14.7409 18.3977 12.7507 20.3878 12.7507 22.8429C12.7507 25.2979 14.7409 27.2881 17.1959 27.2881Z" stroke="#2D2D2D" stroke-width="2" stroke-linecap="round" stroke-linejoin="round"/>
<path d="M38.6147 31.0756C38.6147 30.9412 38.7237 30.8322 38.8582 30.8322C38.9927 30.8322 39.1017 30.9412 39.1017 31.0756C39.1017 31.2101 38.9927 31.3191 38.8582 31.3191C38.7237 31.3191 38.6147 31.2101 38.6147 31.0756Z" fill="#2D2D2D" stroke="#2D2D2D" stroke-width="2"/>
</svg>
