<svg width="154" height="36" viewBox="0 0 154 36" fill="none" xmlns="http://www.w3.org/2000/svg">
<path d="M28.9407 10.7715C26.4523 10.133 23.9063 9.74437 21.3407 9.61151C20.0807 9.53151 18.7007 9.49151 17.1507 9.50151C15.6007 9.51151 14.2207 9.50151 12.9707 9.61151C10.4051 9.74437 7.85912 10.133 5.37069 10.7715C2.72069 11.4715 1.37068 20.7115 1.01068 23.5115C0.976781 23.7416 1.02414 23.9763 1.1446 24.1752C1.26506 24.3742 1.45109 24.5249 1.67069 24.6015C1.67069 24.6015 2.47068 24.9215 3.89068 25.3315C8.10585 26.6069 12.4868 27.2506 16.8907 27.2415H17.4407C21.8447 27.2516 26.2257 26.6079 30.4407 25.3315C31.8607 24.9215 32.6707 24.6015 32.6707 24.6015C32.8903 24.5249 33.0763 24.3742 33.1968 24.1752C33.3172 23.9763 33.3646 23.7416 33.3307 23.5115C32.9607 20.6815 31.6007 11.4415 28.9407 10.7715Z" fill="#2D2D2D"/>
<path d="M17.1799 13.3815C22.8353 13.3815 27.4199 12.7547 27.4199 11.9815C27.4199 11.2083 22.8353 10.5815 17.1799 10.5815C11.5245 10.5815 6.93994 11.2083 6.93994 11.9815C6.93994 12.7547 11.5245 13.3815 17.1799 13.3815Z" fill="white"/>
<path d="M10.6213 17.8714V17.0974H12.0673V21.4714H11.2033V17.8714H10.6213ZM13.1611 20.5234C13.5451 20.2034 13.8511 19.9374 14.0791 19.7254C14.3071 19.5094 14.4971 19.2854 14.6491 19.0534C14.8011 18.8214 14.8771 18.5934 14.8771 18.3694C14.8771 18.1654 14.8291 18.0054 14.7331 17.8894C14.6371 17.7734 14.4891 17.7154 14.2891 17.7154C14.0891 17.7154 13.9351 17.7834 13.8271 17.9194C13.7191 18.0514 13.6631 18.2334 13.6591 18.4654H12.8431C12.8591 17.9854 13.0011 17.6214 13.2691 17.3734C13.5411 17.1254 13.8851 17.0014 14.3011 17.0014C14.7571 17.0014 15.1071 17.1234 15.3511 17.3674C15.5951 17.6074 15.7171 17.9254 15.7171 18.3214C15.7171 18.6334 15.6331 18.9314 15.4651 19.2154C15.2971 19.4994 15.1051 19.7474 14.8891 19.9594C14.6731 20.1674 14.3911 20.4194 14.0431 20.7154H15.8131V21.4114H12.8491V20.7874L13.1611 20.5234ZM18.4064 21.4714L17.2784 20.0554V21.4714H16.4384V17.0314H17.2784V19.5574L18.3944 18.1474H19.4864L18.0224 19.8154L19.4984 21.4714H18.4064ZM21.2443 18.0934C21.4923 18.0934 21.7103 18.1434 21.8983 18.2434C22.0863 18.3394 22.2343 18.4654 22.3423 18.6214V18.1474H23.1883V21.4954C23.1883 21.8034 23.1263 22.0774 23.0023 22.3174C22.8783 22.5614 22.6923 22.7534 22.4443 22.8934C22.1963 23.0374 21.8963 23.1094 21.5443 23.1094C21.0723 23.1094 20.6843 22.9994 20.3803 22.7794C20.0803 22.5594 19.9103 22.2594 19.8703 21.8794H20.7043C20.7483 22.0314 20.8423 22.1514 20.9863 22.2394C21.1343 22.3314 21.3123 22.3774 21.5203 22.3774C21.7643 22.3774 21.9623 22.3034 22.1143 22.1554C22.2663 22.0114 22.3423 21.7914 22.3423 21.4954V20.9794C22.2343 21.1354 22.0843 21.2654 21.8923 21.3694C21.7043 21.4734 21.4883 21.5254 21.2443 21.5254C20.9643 21.5254 20.7083 21.4534 20.4763 21.3094C20.2443 21.1654 20.0603 20.9634 19.9243 20.7034C19.7923 20.4394 19.7263 20.1374 19.7263 19.7974C19.7263 19.4614 19.7923 19.1634 19.9243 18.9034C20.0603 18.6434 20.2423 18.4434 20.4703 18.3034C20.7023 18.1634 20.9603 18.0934 21.2443 18.0934ZM22.3423 19.8094C22.3423 19.6054 22.3023 19.4314 22.2223 19.2874C22.1423 19.1394 22.0343 19.0274 21.8983 18.9514C21.7623 18.8714 21.6163 18.8314 21.4603 18.8314C21.3043 18.8314 21.1603 18.8694 21.0283 18.9454C20.8963 19.0214 20.7883 19.1334 20.7043 19.2814C20.6243 19.4254 20.5843 19.5974 20.5843 19.7974C20.5843 19.9974 20.6243 20.1734 20.7043 20.3254C20.7883 20.4734 20.8963 20.5874 21.0283 20.6674C21.1643 20.7474 21.3083 20.7874 21.4603 20.7874C21.6163 20.7874 21.7623 20.7494 21.8983 20.6734C22.0343 20.5934 22.1423 20.4814 22.2223 20.3374C22.3023 20.1894 22.3423 20.0134 22.3423 19.8094Z" fill="white"/>
<path d="M56.94 15.98C56.94 16.7933 56.7533 17.54 56.38 18.22C56.0067 18.8867 55.4333 19.4267 54.66 19.84C53.8867 20.2533 52.9267 20.46 51.78 20.46H49.66V25.5H46.24V11.46H51.78C52.9 11.46 53.8467 11.6533 54.62 12.04C55.3933 12.4267 55.9733 12.96 56.36 13.64C56.7467 14.32 56.94 15.1 56.94 15.98ZM51.52 17.74C52.1733 17.74 52.66 17.5867 52.98 17.28C53.3 16.9733 53.46 16.54 53.46 15.98C53.46 15.42 53.3 14.9867 52.98 14.68C52.66 14.3733 52.1733 14.22 51.52 14.22H49.66V17.74H51.52ZM62.1405 14.2V17.04H66.7205V19.68H62.1405V22.76H67.3205V25.5H58.7205V11.46H67.3205V14.2H62.1405ZM79.6408 11.46V14.2H75.9208V25.5H72.5008V14.2H68.7808V11.46H79.6408ZM100.677 11.46L97.0172 25.5H92.8772L90.6372 16.26L88.3172 25.5H84.1772L80.6172 11.46H84.2772L86.2972 21.68L88.7972 11.46H92.5572L94.9572 21.68L96.9972 11.46H100.677ZM109.032 25.64C107.712 25.64 106.499 25.3333 105.392 24.72C104.299 24.1067 103.426 23.2533 102.772 22.16C102.132 21.0533 101.812 19.8133 101.812 18.44C101.812 17.0667 102.132 15.8333 102.772 14.74C103.426 13.6467 104.299 12.7933 105.392 12.18C106.499 11.5667 107.712 11.26 109.032 11.26C110.352 11.26 111.559 11.5667 112.652 12.18C113.759 12.7933 114.626 13.6467 115.252 14.74C115.892 15.8333 116.212 17.0667 116.212 18.44C116.212 19.8133 115.892 21.0533 115.252 22.16C114.612 23.2533 113.746 24.1067 112.652 24.72C111.559 25.3333 110.352 25.64 109.032 25.64ZM109.032 22.52C110.152 22.52 111.046 22.1467 111.712 21.4C112.392 20.6533 112.732 19.6667 112.732 18.44C112.732 17.2 112.392 16.2133 111.712 15.48C111.046 14.7333 110.152 14.36 109.032 14.36C107.899 14.36 106.992 14.7267 106.312 15.46C105.646 16.1933 105.312 17.1867 105.312 18.44C105.312 19.68 105.646 20.6733 106.312 21.42C106.992 22.1533 107.899 22.52 109.032 22.52ZM125.275 25.5L122.355 20.2H121.535V25.5H118.115V11.46H123.855C124.962 11.46 125.902 11.6533 126.675 12.04C127.462 12.4267 128.048 12.96 128.435 13.64C128.822 14.3067 129.015 15.0533 129.015 15.88C129.015 16.8133 128.748 17.6467 128.215 18.38C127.695 19.1133 126.922 19.6333 125.895 19.94L129.135 25.5H125.275ZM121.535 17.78H123.655C124.282 17.78 124.748 17.6267 125.055 17.32C125.375 17.0133 125.535 16.58 125.535 16.02C125.535 15.4867 125.375 15.0667 125.055 14.76C124.748 14.4533 124.282 14.3 123.655 14.3H121.535V17.78ZM134.582 22.86H139.062V25.5H131.162V11.46H134.582V22.86ZM145.953 11.46C147.433 11.46 148.726 11.7533 149.833 12.34C150.94 12.9267 151.793 13.7533 152.393 14.82C153.006 15.8733 153.313 17.0933 153.313 18.48C153.313 19.8533 153.006 21.0733 152.393 22.14C151.793 23.2067 150.933 24.0333 149.813 24.62C148.706 25.2067 147.42 25.5 145.953 25.5H140.693V11.46H145.953ZM145.733 22.54C147.026 22.54 148.033 22.1867 148.753 21.48C149.473 20.7733 149.833 19.7733 149.833 18.48C149.833 17.1867 149.473 16.18 148.753 15.46C148.033 14.74 147.026 14.38 145.733 14.38H144.113V22.54H145.733Z" fill="#2D2D2D"/>
</svg>
