<svg width="70" height="70" viewBox="0 0 70 70" fill="none" xmlns="http://www.w3.org/2000/svg">
<rect width="70" height="70" rx="10" fill="#E6E6E6"/>
<circle cx="34.1176" cy="35.8824" r="25.7647" fill="#FF6250" stroke="#2D2D2D" stroke-width="2"/>
<path d="M45.2058 32.8006H22.2876C22.2285 32.8006 22.1805 32.8485 22.1805 32.9076V38.2223C22.1805 38.2815 22.2285 38.3294 22.2876 38.3294H45.2058C45.265 38.3294 45.3129 38.2815 45.3129 38.2223V32.9076C45.3129 32.8485 45.265 32.8006 45.2058 32.8006Z" fill="white"/>
<path d="M35.1881 32.7013C35.4623 32.7361 35.7398 32.7361 36.014 32.7013C36.3964 32.7013 36.7788 32.7012 37.1841 32.6554L39.4399 32.6019H39.8223C40.2506 32.6671 40.6862 32.6671 41.1146 32.6019C41.1883 32.5943 41.2626 32.5943 41.3364 32.6019C42.2693 32.7089 43.2024 32.6019 44.1353 32.6019H45.0146C45.1752 32.6019 45.3206 32.6019 45.4429 32.7013C45.5001 32.8367 45.5286 32.9825 45.5269 33.1295V33.1677C45.5269 33.336 45.5269 33.5348 45.5269 33.6648C45.5305 33.7919 45.5511 33.9179 45.5882 34.0395C45.6011 34.1334 45.6011 34.2286 45.5882 34.3225C45.5882 35.003 45.5882 35.5689 45.5882 36.1118V36.8765C45.5882 37.1595 45.5882 37.4578 45.5882 37.7713C45.6143 37.9868 45.5961 38.2054 45.5346 38.4136C45.5224 38.4616 45.4975 38.5053 45.4625 38.5403C45.4275 38.5753 45.3837 38.6002 45.3357 38.6124C45.2387 38.6432 45.1389 38.6636 45.0376 38.6736H43.8829H41.3899C40.7399 38.6736 40.0899 38.6736 39.4399 38.6736C38.4228 38.6736 37.3981 38.6736 36.3811 38.7272C35.364 38.7807 34.4923 38.8036 33.544 38.8036H31.7622H30.5922C29.6516 38.8036 28.7034 38.8572 27.7781 38.8036C26.654 38.8036 25.5606 38.8036 24.4671 38.8648C24.2606 38.8648 24.0541 38.8648 23.8706 38.9183C23.3904 39.0313 22.886 38.9773 22.4405 38.7653C22.234 38.6277 22.0964 38.4824 22.2876 38.3219C22.4788 38.1613 22.6699 38.0695 23.3734 38.0847C24.0769 38.1 24.5588 38.0389 25.1629 38.0847C25.3459 38.0765 25.5277 38.0509 25.7058 38.0083C26.4705 38.0083 27.2352 38.0083 27.9999 37.9472C28.2523 37.9472 28.5506 37.9472 28.8259 37.9472C29.1012 37.9472 29.5905 37.9472 29.9117 37.9472C30.814 37.9472 31.7241 37.9471 32.6188 37.8936C32.8788 37.8936 33.1846 37.8936 33.4675 37.8936C34.2927 37.9395 35.1199 37.9395 35.9451 37.8936C36.7098 37.993 37.4746 37.8936 38.2393 37.9548C38.5069 37.9548 38.7899 37.9548 39.0652 37.9548H39.2334L40.587 37.8936H42.2769C42.6746 37.8936 43.0417 37.8936 43.4699 37.8936C43.6558 37.9044 43.8422 37.9044 44.0281 37.8936C44.1848 37.8797 44.3407 37.8568 44.4947 37.8248C44.5806 37.873 44.6799 37.8919 44.7775 37.8784C44.8234 37.8019 44.7775 37.6871 44.7775 37.5953V35.6071V33.3894C44.7893 33.3237 44.7893 33.2565 44.7775 33.1907C44.7316 33.1448 44.6475 33.1907 44.5864 33.1907H44.3799H43.9822C43.7931 33.2261 43.6011 33.2439 43.4087 33.2442C42.6445 33.2021 41.8787 33.2021 41.1146 33.2442H40.6635C40.6067 33.2235 40.5457 33.2169 40.4858 33.2249C40.4258 33.2329 40.3688 33.2553 40.3194 33.2901H39.8835C39.6841 33.2617 39.4809 33.2964 39.3023 33.3894C39.027 33.3894 38.8588 33.2747 38.5835 33.3894C38.1018 33.3894 37.6046 33.3894 37.1381 33.3894C36.4007 33.3658 35.6627 33.3889 34.9282 33.4583C34.7222 33.5083 34.5071 33.5083 34.3011 33.4583C34.2476 33.4583 33.9493 33.4583 33.8652 33.4583C33.7308 33.438 33.5942 33.438 33.4598 33.4583C32.7487 33.4583 32.03 33.4583 31.3188 33.4583C31.0643 33.4389 30.8086 33.4389 30.5541 33.4583C30.0914 33.5424 29.6173 33.5424 29.1546 33.4583C28.8576 33.421 28.5571 33.421 28.26 33.4583C27.783 33.5541 27.2916 33.5541 26.8146 33.4583C26.6342 33.4374 26.4521 33.4374 26.2717 33.4583H26.1951H26.2793L23.7405 33.5042C23.4422 33.5042 23.1135 33.5042 22.8458 33.5042C22.8458 33.5042 22.7922 33.5042 22.7769 33.5424V33.8407C22.7769 34.6054 22.8841 35.3013 22.8535 36.0584C22.8267 36.5423 22.8267 37.0273 22.8535 37.5112C22.8754 37.6763 22.8569 37.8442 22.7999 38.0006C22.7816 38.0585 22.7587 38.1148 22.7312 38.1689H22.4252V38.0847C22.3564 37.863 22.2875 37.6489 22.2111 37.4195C22.1346 37.19 22.1653 36.716 22.1423 36.3489C22.1081 36.1593 22.1081 35.9651 22.1423 35.7754C22.1767 35.5832 22.1767 35.3864 22.1423 35.1942C22.0506 34.766 22.0581 34.2536 21.9893 33.8177C22.0964 33.5779 22.1285 33.3113 22.0811 33.053C22.0811 32.9689 22.0811 32.8924 22.0811 32.8236C22.082 32.8058 22.0866 32.7885 22.0946 32.7725C22.1025 32.7566 22.1136 32.7423 22.1272 32.7309C22.1408 32.7194 22.1566 32.7109 22.1737 32.7058C22.1908 32.7007 22.2087 32.6992 22.2264 32.7013C22.3638 32.6899 22.5019 32.6899 22.6393 32.7013C22.8967 32.7166 23.1524 32.7524 23.404 32.8084L23.7864 32.6707C23.8468 32.7443 23.9282 32.7976 24.0198 32.8236C24.1113 32.8495 24.2087 32.8469 24.2987 32.8159C24.9559 32.6829 25.6313 32.6648 26.2946 32.7624L26.5928 32.6019L26.9524 32.7471C27.2645 32.7048 27.5808 32.7048 27.893 32.7471C27.9845 32.7565 28.0766 32.7565 28.1681 32.7471C28.2981 32.7471 28.4434 32.7471 28.5505 32.7471C28.6825 32.706 28.8238 32.706 28.9558 32.7471H29.1317H28.9482C28.994 32.663 29.1776 32.64 29.3994 32.6324C29.7512 32.6324 30.164 32.6324 30.4469 32.5559C30.7772 32.5485 31.1067 32.5205 31.4334 32.4718C31.6215 32.4509 31.8113 32.4509 31.9993 32.4718C32.5011 32.3609 33.0154 32.3171 33.5287 32.3418L34.2322 32.5636H34.3853H35.15L35.1881 32.7013Z" fill="white"/>
<path d="M22.0429 33.3512C21.997 33.4812 21.9588 33.6342 21.913 33.7412V33.6877C21.913 33.6112 21.913 33.4507 21.9589 33.3665C21.9774 33.3027 22.0029 33.2411 22.0353 33.183L22.0429 33.3512Z" fill="white"/>
<path d="M35.5248 32.5788L35.6011 32.5329C35.6392 32.5276 35.6779 32.5276 35.716 32.5329C35.716 32.5329 35.716 32.533 35.716 32.5712L35.5248 32.5788Z" fill="white"/>
<path d="M35.1959 32.7012L35.2647 32.663L35.3259 32.6859L35.1882 32.7012H35.1959Z" fill="white"/>
<path d="M42.5294 33.3283H42.5906H42.5217C42.5217 33.3283 42.537 33.3359 42.5294 33.3283Z" fill="white"/>
<path d="M34.2476 32.6859L34.3623 32.6477L34.4082 32.6859H34.4159H34.24H34.2476Z" fill="white"/>
<path d="M31.6935 32.0282L31.7318 32.0358L31.6782 32.0435L31.6935 32.0282Z" fill="white"/>
<path d="M38.6982 33.3436L38.8512 33.3971H38.8588L38.7059 33.3359L38.6982 33.3436Z" fill="white"/>
<path d="M40.587 33.3206H40.4417H40.4341L40.6023 33.3282L40.587 33.3206Z" fill="white"/>
<path d="M40.7629 33.2747L40.587 33.3206L40.6023 33.3282L40.7706 33.2747H40.7629Z" fill="white"/>
<path d="M39.18 38.0694L39.3482 38.077V38.0694H39.1724H39.18Z" fill="white"/>
<path d="M36.3965 23.9988H31.0818C31.0227 23.9988 30.9747 24.0467 30.9747 24.1059V47.0241C30.9747 47.0832 31.0227 47.1311 31.0818 47.1311H36.3965C36.4556 47.1311 36.5036 47.0832 36.5036 47.0241V24.1059C36.5036 24.0467 36.4556 23.9988 36.3965 23.9988Z" fill="white"/>
<path d="M30.8829 34.1236C30.9255 33.8473 30.9255 33.5663 30.8829 33.2901C30.8829 32.9154 30.8829 32.5253 30.837 32.1277L30.7834 29.8336C30.7834 29.7036 30.7834 29.5736 30.7834 29.4512C30.8487 29.0229 30.8487 28.5871 30.7834 28.1588C30.7758 28.0851 30.7758 28.0108 30.7834 27.9371C30.8828 27.0042 30.7834 26.0712 30.7834 25.1306V24.2588C30.7834 24.0983 30.7835 23.9529 30.8829 23.8306C31.0184 23.7734 31.1642 23.7448 31.3112 23.7465H31.8541C31.9782 23.7385 32.1012 23.718 32.2212 23.6853C32.3176 23.6724 32.4152 23.6724 32.5117 23.6853C33.1923 23.6853 33.7582 23.6853 34.2935 23.6853H35.0582H35.9528C36.1684 23.6585 36.3872 23.6767 36.5953 23.7388C36.6432 23.751 36.687 23.776 36.722 23.811C36.757 23.8459 36.7819 23.8897 36.7941 23.9376C36.8276 24.0343 36.8508 24.1343 36.863 24.2359V25.3906L36.9011 27.8835C36.9011 28.5335 36.9011 29.1836 36.9011 29.8336C36.9011 30.8506 36.9011 31.8753 36.9547 32.8924C37.0082 33.9095 37.0312 34.7812 37.0389 35.7294V37.5112V38.6812C37.0389 39.6218 37.0924 40.57 37.0389 41.4953C36.9978 42.5993 37.0181 43.7047 37.0999 44.8065C37.0999 45.0053 37.1 45.2194 37.1458 45.403C37.2587 45.8832 37.2048 46.3875 36.9929 46.833C36.8553 47.0394 36.7099 47.177 36.5493 46.9859C36.3888 46.7947 36.3048 46.6036 36.3124 45.9001C36.3201 45.1965 36.2665 44.7147 36.3124 44.1106C36.308 43.9272 36.2822 43.7451 36.2359 43.5677C36.2359 42.803 36.2358 42.0382 36.1746 41.2735C36.1597 40.9985 36.1597 40.7228 36.1746 40.4477C36.1746 40.0883 36.1746 39.7212 36.1746 39.3618C36.1746 38.4594 36.1748 37.5494 36.1136 36.647C36.1136 36.3947 36.1136 36.0888 36.1136 35.8059C36.1633 34.9807 36.1633 34.1534 36.1136 33.3282C36.213 32.5635 36.1135 31.7988 36.1746 31.0341C36.1895 30.7565 36.1895 30.4783 36.1746 30.2006V30.0248C36.1746 29.5736 36.1365 29.1071 36.1136 28.6712C36.1136 28.113 36.1136 27.5471 36.1136 26.9812C36.1136 26.5836 36.0754 26.2165 36.1136 25.7883C36.1282 25.6025 36.1282 25.4158 36.1136 25.23C36.0997 25.0733 36.0767 24.9176 36.0447 24.7636C36.0919 24.6771 36.1132 24.5789 36.1059 24.4806C36.0218 24.4348 35.907 24.4806 35.8229 24.4806H33.8271H31.6094C31.5433 24.4728 31.4766 24.4728 31.4105 24.4806C31.4105 24.5342 31.4105 24.6183 31.4105 24.6795V24.8859V25.2912C31.4398 25.481 31.4552 25.6727 31.4565 25.8647C31.4142 26.6288 31.4142 27.3947 31.4565 28.1588V28.6253C31.4182 28.8088 31.4565 28.9083 31.51 28.9618C31.51 29.1071 31.51 29.2523 31.51 29.3976C31.476 29.5962 31.5082 29.8004 31.6017 29.9788C31.6017 30.2541 31.4946 30.4224 31.5634 30.6977C31.5634 31.1795 31.5634 31.6765 31.5634 32.143C31.5437 32.8804 31.5668 33.6182 31.6323 34.3529C31.6823 34.559 31.6823 34.774 31.6323 34.98C31.6323 35.0336 31.6782 35.3318 31.6323 35.4159C31.612 35.5502 31.612 35.6869 31.6323 35.8212C31.6323 36.5324 31.6323 37.2512 31.6323 37.9624C31.6323 38.2148 31.6323 38.4977 31.6323 38.7271C31.7127 39.1901 31.7127 39.6635 31.6323 40.1265C31.5909 40.4233 31.5909 40.7244 31.6323 41.0212C31.7281 41.4982 31.7281 41.9895 31.6323 42.4665C31.6154 42.6471 31.6154 42.8289 31.6323 43.0094L31.5941 43.0859L31.6323 43.0018L31.6706 45.5406C31.6706 45.8388 31.6706 46.1677 31.6706 46.4353C31.6706 46.4353 31.6706 46.4888 31.7089 46.4965C31.7089 46.4965 31.7087 46.4965 31.747 46.4965H31.9688C32.7335 46.4965 33.4295 46.3894 34.1865 46.42C34.6705 46.4468 35.1554 46.4468 35.6394 46.42C35.8045 46.3981 35.9725 46.4165 36.1289 46.4736C36.1868 46.4919 36.243 46.5149 36.2971 46.5424H36.3352V47.07V46.8483H36.2512L35.5858 47.0623L34.5153 47.1312C34.3282 47.1655 34.1365 47.1655 33.9494 47.1312C33.7546 47.0969 33.5554 47.0969 33.3606 47.1312C32.9323 47.223 32.42 47.2153 31.9841 47.2841C31.7443 47.177 31.4777 47.145 31.2194 47.1924H30.9899C30.9721 47.1914 30.9547 47.1868 30.9388 47.1789C30.9228 47.171 30.9088 47.1599 30.8973 47.1462C30.8858 47.1326 30.8772 47.1168 30.8721 47.0998C30.867 47.0827 30.8655 47.0648 30.8676 47.0471C30.86 46.9096 30.86 46.7717 30.8676 46.6341C30.8867 46.3772 30.9224 46.1217 30.9746 45.8694L30.8447 45.4871C30.9169 45.4258 30.9689 45.3439 30.9935 45.2524C31.0181 45.1609 31.0141 45.064 30.9823 44.9747C30.8494 44.3175 30.8314 43.6422 30.9289 42.9788L30.776 42.6806C30.8218 42.5582 30.8677 42.4512 30.9136 42.3212C30.8827 42.0071 30.8982 41.6902 30.9595 41.3806C30.968 41.289 30.968 41.1969 30.9595 41.1053C30.9595 40.9753 30.9595 40.83 30.9595 40.723C30.9183 40.591 30.9183 40.4496 30.9595 40.3177L30.9976 40.1341L30.9595 40.3253C30.883 40.2794 30.86 40.0959 30.8447 39.8742C30.8447 39.5224 30.8448 39.1095 30.7683 38.8265C30.7685 38.4959 30.7403 38.1658 30.6841 37.84C30.671 37.6516 30.671 37.4625 30.6841 37.2741C30.5732 36.7724 30.5295 36.258 30.5542 35.7447C30.6306 35.5153 30.7071 35.2782 30.776 35.0412V34.8806V34.1159L30.8829 34.1236Z" fill="white"/>
<path d="M31.5407 47.2688C31.663 47.3147 31.816 47.353 31.923 47.3989H31.8694C31.7625 47.4059 31.6551 47.4059 31.5481 47.3989C31.4843 47.3804 31.4227 47.3548 31.3646 47.3224L31.5407 47.2688Z" fill="white"/>
<path d="M30.7607 33.8177L30.7148 33.7412C30.7095 33.7006 30.7095 33.6595 30.7148 33.6189C30.7148 33.6189 30.7148 33.6189 30.753 33.6189L30.7607 33.8177Z" fill="white"/>
<path d="M30.8217 45.8083C30.8184 45.788 30.8184 45.7673 30.8217 45.7471V45.8007V45.8083Z" fill="white"/>
<path d="M30.2251 29.2906V29.3518V29.2754C30.2249 29.2805 30.2249 29.2855 30.2251 29.2906Z" fill="white"/>
<path d="M30.8829 34.1159L30.837 34.0394L30.86 33.9782L30.8829 34.1235V34.1159Z" fill="white"/>
<path d="M31.51 26.7824V26.7212V26.7824C31.5177 26.7748 31.51 26.7824 31.51 26.7824Z" fill="white"/>
<path d="M30.8676 35.0564L30.8293 34.9417L30.8676 34.9035V34.8958L30.8599 35.0717L30.8676 35.0564Z" fill="white"/>
<path d="M30.21 37.6182L30.2176 37.58L30.2253 37.6259L30.21 37.6182Z" fill="white"/>
<path d="M31.5252 30.6059L31.5788 30.4529V30.4453L31.5176 30.5982L31.5252 30.6059Z" fill="white"/>
<path d="M31.5023 28.7171V28.87L31.51 28.7094L31.5023 28.7171Z" fill="white"/>
<path d="M31.4564 28.5412L31.5023 28.7171L31.51 28.7094L31.4564 28.5335V28.5412Z" fill="white"/>
</svg>
