<svg width="65" height="65" viewBox="0 0 65 65" fill="none" xmlns="http://www.w3.org/2000/svg">
<path d="M55.8634 28.5893C57.5497 26.7892 58.4098 24.2517 57.948 21.6332C57.1698 17.2196 52.966 14.276 48.5524 15.0543C44.1388 15.8325 41.1952 20.0363 41.9734 24.4499C42.0693 24.9934 42.2213 25.5185 42.4116 26.0198L21.3317 29.7368C21.3473 29.1991 21.3023 28.6552 21.2065 28.1117C20.4282 23.6981 16.2244 20.7546 11.8108 21.5328C7.39719 22.311 4.45363 26.5149 5.23186 30.9285C5.69358 33.547 7.36142 35.6387 9.56995 36.7521C7.88364 38.5522 7.02355 41.0896 7.48527 43.7082C8.2635 48.1218 12.4673 51.0653 16.8809 50.2871C21.2945 49.5088 24.2381 45.305 23.4599 40.8914C23.364 40.3479 23.212 39.8229 23.0217 39.3215L44.1016 35.6046C44.0861 36.1422 44.131 36.6862 44.2269 37.2296C45.0051 41.6432 49.2089 44.5868 53.6225 43.8086C58.0361 43.0303 60.9797 38.8265 60.2014 34.4129C59.7315 31.7958 58.0637 29.7041 55.8634 28.5893Z" fill="#2D2D2D"/>
</svg>
